<?xml version="1.0" encoding="utf-8"?>
<!-- Generator: Adobe Illustrator 27.0.0, SVG Export Plug-In . SVG Version: 6.00 Build 0)  -->
<svg version="1.1" id="Book_Juice" xmlns="http://www.w3.org/2000/svg" xmlns:xlink="http://www.w3.org/1999/xlink" x="0px" y="0px"
	 viewBox="71 70 425 425"
	 style="enable-background:new 0 0 500 500;"
	 xml:space="preserve">
<style type="text/css">
	.st0{fill:#ED1C24;}
	.st1{fill:#FFFFFF;}
</style>
<g id="XMLID_00000010278657583098217270000010153190379927392129_">
	<path id="XMLID_00000054982153204307555630000005645399980770403244_"
		  class="st0"
		  d="M494.96,279.29
		C494.96,279.28,494.96,279.28,494.96,279.29c0-0.01,0-0.01,0-0.02c0-0.01-0.01-0.02-0.02-0.02c-0.01-0.02-0.02-0.04-0.05-0.06
		c-0.19-0.27-0.59-0.51-0.84-0.71c-0.33-0.26-0.67-0.52-1.01-0.77c-0.65-0.48-1.31-0.95-1.94-1.45c-0.06-0.05-0.12-0.09-0.18-0.14
		c-2.84-2.26-5.23-5.06-7.14-8.14c-1.63-2.62-3.32-5.86-3.09-9.05c0.78-10.48,1.88-20.94,2.84-31.42
		c0.76-8.29,1.34-16.59,2.33-24.85c1.29-10.77,2.53-21.56,4.49-32.22c2.48-13.51-1.28-24.68-11.2-33.85
		c-2.57-2.38-5.54-4.6-8.72-5.97c-4.86-2.1-6.61-5.72-6.83-10.54c-0.53-11.51-11.18-22.88-24.11-22.27
		c-9.76,0.46-9.59-0.06-15.7-7.59c-8.38-10.33-19.07-15.2-32.64-13.17c-11.95,1.78-23.94,3.37-35.95,4.59
		c-3.59,0.37-7.18,0.72-10.77,1.07c-6.19,0.59-12.39,1.15-18.58,1.68c-6.2,0.52-12.4,1.01-18.6,1.46c-2.66,0.19-5.2,0.26-7.81-0.39
		c-2.49-0.62-4.86-1.75-6.85-3.38c-1.92-1.57-3.44-3.56-4.86-5.57c-0.36-0.5-4.07-5.99-4.28-5.86c0,0,0,0-0.01,0.01
		c0,0,0,0-0.01-0.01c-0.21-0.13-3.92,5.35-4.28,5.86c-1.42,2.02-2.94,4-4.86,5.57c-1.99,1.63-4.36,2.76-6.85,3.38
		c-2.61,0.65-5.16,0.58-7.81,0.39c-6.2-0.45-12.4-0.94-18.6-1.46c-6.2-0.52-12.39-1.08-18.58-1.68c-3.59-0.34-7.18-0.7-10.77-1.07
		c-12.02-1.23-24.01-2.81-35.95-4.59c-13.57-2.03-24.26,2.84-32.64,13.17c-6.11,7.52-5.93,8.05-15.7,7.59
		c-12.93-0.61-23.58,10.76-24.11,22.27c-0.22,4.82-1.97,8.44-6.83,10.54c-3.18,1.38-6.15,3.6-8.72,5.97
		c-9.92,9.17-13.68,20.34-11.2,33.85c1.96,10.66,3.2,21.45,4.49,32.22c0.99,8.26,1.57,16.57,2.33,24.85
		c0.97,10.47,2.06,20.93,2.84,31.42c0.24,3.19-1.45,6.43-3.09,9.05c-1.92,3.08-4.3,5.88-7.14,8.14c-0.06,0.05-0.12,0.09-0.18,0.14
		c-0.64,0.5-1.29,0.97-1.94,1.45c-0.34,0.25-0.68,0.51-1.01,0.77c-0.25,0.2-0.64,0.44-0.84,0.71c-0.02,0.03-0.04,0.05-0.05,0.06
		c0,0.01-0.01,0.02-0.02,0.02c0,0,0,0.01,0,0.01c0,0,0,0.01,0,0.01c0,0.01,0.01,0.02,0.02,0.02c0.01,0.02,0.02,0.04,0.05,0.06
		c0.19,0.27,0.59,0.51,0.84,0.71c0.33,0.26,0.67,0.52,1.01,0.77c0.65,0.48,1.31,0.95,1.94,1.45c0.06,0.05,0.12,0.09,0.18,0.14
		c2.84,2.26,5.23,5.06,7.14,8.14c1.63,2.62,3.32,5.86,3.09,9.05c-0.78,10.48-1.88,20.94-2.84,31.42
		c-0.76,8.29-1.34,16.59-2.33,24.85c-1.29,10.77-2.53,21.56-4.49,32.22c-2.48,13.51,1.28,24.68,11.2,33.85
		c2.57,2.38,5.54,4.6,8.72,5.97c4.86,2.1,6.61,5.72,6.83,10.54c0.53,11.51,11.18,22.88,24.11,22.27c9.76-0.46,9.59,0.06,15.7,7.59
		c8.38,10.33,19.07,15.2,32.64,13.17c11.95-1.78,23.94-3.37,35.95-4.59c3.59-0.37,7.18-0.72,10.77-1.07
		c6.19-0.59,12.39-1.15,18.58-1.68c6.2-0.52,12.4-1.01,18.6-1.46c2.66-0.19,5.2-0.26,7.81,0.39c2.49,0.62,4.86,1.75,6.85,3.38
		c1.92,1.57,3.44,3.56,4.86,5.57c0.36,0.5,4.07,5.99,4.28,5.86c0,0,0,0,0.01-0.01c0,0,0,0,0.01,0.01c0.21,0.13,3.92-5.35,4.28-5.86
		c1.42-2.02,2.94-4,4.86-5.57c1.99-1.63,4.36-2.76,6.85-3.38c2.61-0.65,5.16-0.58,7.81-0.39c6.2,0.45,12.4,0.94,18.6,1.46
		c6.2,0.52,12.39,1.08,18.58,1.68c3.59,0.34,7.18,0.7,10.77,1.07c12.02,1.23,24.01,2.81,35.95,4.59
		c13.57,2.03,24.26-2.84,32.64-13.17c6.11-7.52,5.93-8.05,15.7-7.59c12.93,0.61,23.58-10.76,24.11-22.27
		c0.22-4.82,1.97-8.44,6.83-10.54c3.18-1.38,6.15-3.6,8.72-5.97c9.92-9.17,13.68-20.34,11.2-33.85c-1.96-10.66-3.2-21.45-4.49-32.22
		c-0.99-8.26-1.57-16.57-2.33-24.85c-0.97-10.47-2.06-20.93-2.84-31.42c-0.24-3.19,1.45-6.43,3.09-9.05
		c1.92-3.08,4.3-5.88,7.14-8.14c0.06-0.05,0.12-0.09,0.18-0.14c0.64-0.5,1.29-0.97,1.94-1.45c0.34-0.25,0.68-0.51,1.01-0.77
		c0.25-0.2,0.64-0.44,0.84-0.71c0.02-0.03,0.04-0.05,0.05-0.06C494.95,279.3,494.96,279.29,494.96,279.29z"/>
	<g id="XMLID_00000172434776898841096520000008583255731104405433_">
		<path class="st1" d="M291.64,92.82L291.64,92.82L291.64,92.82 M388.96,102.06c6.37,0,11.56,2.73,16.31,8.58l0.87,1.08
			c4.39,5.44,8.18,10.15,18.57,10.15c1.36,0,2.82-0.06,4.19-0.13c0.14-0.01,0.27-0.01,0.41-0.01c5.54,0,10.26,5.58,10.47,10.21
			c0.53,11.61,7.34,16.95,12.96,19.38c1.01,0.44,2.69,1.4,4.99,3.53c6.49,6,8.66,12.59,7.05,21.36c-1.75,9.51-2.9,19.11-4.01,28.4
			l-0.26,2.19c-0.66,5.48-1.13,10.97-1.58,16.28c-0.2,2.37-0.4,4.73-0.62,7.1c-0.26,2.85-0.54,5.7-0.81,8.54
			c-0.65,6.8-1.33,13.84-1.85,20.82c-0.47,6.26,2.35,11.58,4.5,15.04c1.04,1.66,2.16,3.22,3.36,4.67c-1.2,1.45-2.32,3.01-3.36,4.67
			c-2.16,3.46-4.97,8.78-4.5,15.04c0.52,6.99,1.2,14.02,1.85,20.82c0.27,2.85,0.55,5.7,0.81,8.54c0.22,2.36,0.42,4.73,0.62,7.1
			c0.45,5.31,0.92,10.81,1.58,16.28l0.26,2.19c1.11,9.29,2.26,18.89,4.01,28.4c1.61,8.78-0.56,15.37-7.05,21.36
			c-2.3,2.13-3.99,3.09-5,3.53c-5.62,2.43-12.43,7.77-12.96,19.38c-0.21,4.62-4.93,10.21-10.47,10.21c-0.13,0-0.27,0-0.41-0.01
			c-1.37-0.07-2.83-0.13-4.19-0.13c-10.39,0-14.18,4.7-18.58,10.15l-0.87,1.08c-4.75,5.85-9.93,8.58-16.31,8.58
			c-1.22,0-2.52-0.1-3.84-0.3c-12.39-1.85-23.47-3.26-33.9-4.33c-3.36-0.34-6.71-0.67-10.07-1c-5.82-0.56-11.67-1.08-17.38-1.57
			c-5.83-0.49-11.68-0.95-17.41-1.37c-0.98-0.07-2.28-0.15-3.69-0.15c-2.53,0-4.83,0.27-7.02,0.81c-3.95,0.98-7.65,2.82-10.68,5.31
			c-0.53,0.44-1.04,0.89-1.52,1.34c-0.48-0.46-0.98-0.91-1.52-1.34c-3.03-2.49-6.72-4.32-10.68-5.31c-2.2-0.55-4.49-0.81-7.02-0.81
			c-1.41,0-2.71,0.08-3.69,0.15c-5.72,0.41-11.58,0.87-17.41,1.37c-5.71,0.48-11.56,1.01-17.38,1.57c-3.36,0.32-6.71,0.65-10.07,1
			c-10.42,1.06-21.51,2.48-33.9,4.33c-1.33,0.2-2.62,0.3-3.84,0.3c-6.37,0-11.55-2.73-16.31-8.58l-0.87-1.08
			c-4.39-5.44-8.19-10.15-18.58-10.15c-1.36,0-2.82,0.06-4.19,0.13c-0.14,0.01-0.27,0.01-0.41,0.01c-5.54,0-10.26-5.58-10.47-10.21
			c-0.53-11.61-7.34-16.95-12.96-19.38c-1.01-0.44-2.69-1.4-5-3.53c-6.49-6-8.66-12.59-7.05-21.36c1.75-9.51,2.9-19.11,4.01-28.4
			l0.26-2.19c0.66-5.48,1.13-10.97,1.58-16.28c0.2-2.37,0.4-4.73,0.62-7.1c0.26-2.85,0.54-5.7,0.81-8.54
			c0.65-6.8,1.33-13.84,1.85-20.82c0.47-6.26-2.35-11.58-4.5-15.04c-1.04-1.66-2.16-3.22-3.36-4.67c1.2-1.45,2.32-3.01,3.36-4.67
			c2.16-3.46,4.97-8.78,4.5-15.04c-0.52-6.99-1.2-14.02-1.85-20.82c-0.27-2.85-0.55-5.7-0.81-8.54c-0.22-2.36-0.42-4.73-0.62-7.1
			c-0.45-5.31-0.92-10.81-1.58-16.28l-0.26-2.19c-1.11-9.29-2.26-18.89-4.01-28.4c-1.61-8.78,0.56-15.37,7.05-21.36
			c2.3-2.13,3.99-3.09,5-3.53c5.62-2.43,12.43-7.77,12.96-19.38c0.21-4.62,4.93-10.21,10.47-10.21c0.13,0,0.27,0,0.41,0.01
			c1.37,0.07,2.83,0.13,4.19,0.13c10.39,0,14.18-4.7,18.58-10.15l0.87-1.08c4.75-5.86,9.93-8.58,16.31-8.58
			c1.22,0,2.52,0.1,3.84,0.3c12.39,1.85,23.47,3.26,33.9,4.33c3.36,0.34,6.71,0.67,10.07,1c5.82,0.56,11.67,1.08,17.38,1.57
			c5.83,0.49,11.68,0.95,17.41,1.37c0.98,0.07,2.28,0.15,3.69,0.15c2.53,0,4.83-0.27,7.02-0.81c3.95-0.98,7.65-2.82,10.68-5.31
			c0.53-0.44,1.04-0.89,1.52-1.34c0.48,0.46,0.98,0.91,1.52,1.34c3.03,2.49,6.72,4.32,10.68,5.31c2.2,0.55,4.49,0.81,7.02,0.81
			c1.41,0,2.71-0.08,3.69-0.15c5.72-0.41,11.58-0.87,17.41-1.37c5.71-0.48,11.56-1.01,17.38-1.57c3.36-0.32,6.71-0.65,10.07-1
			c10.42-1.06,21.51-2.48,33.9-4.33C386.44,102.16,387.74,102.06,388.96,102.06 M283.48,85.53
			C283.48,85.53,283.47,85.53,283.48,85.53c-0.01,0-0.01,0.01-0.01,0.01c0,0,0,0-0.01-0.01c0,0-0.01,0-0.01,0
			c-0.27,0-3.64,4.98-3.96,5.44c-1.32,1.87-2.73,3.71-4.52,5.17c-1.85,1.51-4.05,2.56-6.36,3.14c-1.46,0.36-2.91,0.49-4.36,0.49
			c-0.95,0-1.92-0.05-2.89-0.12c-5.76-0.42-11.52-0.87-17.27-1.36c-5.76-0.49-11.51-1.01-17.26-1.56c-3.33-0.32-6.67-0.65-10-0.99
			c-11.16-1.14-22.29-2.61-33.39-4.26c-1.88-0.28-3.7-0.42-5.47-0.42c-10.05,0-18.23,4.49-24.85,12.65
			c-4.77,5.88-5.42,7.16-10.91,7.16c-1.03,0-2.23-0.05-3.67-0.11c-0.31-0.01-0.62-0.02-0.93-0.02c-11.59,0-20.98,10.29-21.46,20.7
			c-0.21,4.48-1.83,7.83-6.34,9.79c-2.95,1.28-5.71,3.34-8.09,5.55c-9.21,8.51-12.71,18.89-10.4,31.43
			c1.82,9.9,2.97,19.92,4.17,29.92c0.92,7.67,1.46,15.39,2.17,23.08c0.9,9.72,1.92,19.44,2.64,29.17c0.22,2.96-1.35,5.97-2.87,8.4
			c-1.78,2.86-3.99,5.46-6.64,7.56c-0.05,0.04-0.11,0.09-0.16,0.13c-0.59,0.46-1.2,0.9-1.8,1.35c-0.32,0.23-0.63,0.47-0.94,0.72
			c-0.23,0.18-0.6,0.41-0.78,0.66c-0.02,0.02-0.04,0.04-0.04,0.06c0,0.01-0.01,0.01-0.02,0.02c0,0,0,0.01,0,0.01c0,0,0,0.01,0,0.01
			c0,0.01,0.01,0.01,0.02,0.02c0.01,0.02,0.02,0.03,0.04,0.06c0.18,0.25,0.55,0.48,0.78,0.66c0.31,0.25,0.62,0.48,0.94,0.72
			c0.6,0.45,1.21,0.88,1.8,1.35c0.05,0.04,0.11,0.09,0.16,0.13c2.64,2.1,4.85,4.7,6.64,7.56c1.52,2.43,3.09,5.44,2.87,8.4
			c-0.73,9.74-1.74,19.45-2.64,29.17c-0.71,7.7-1.25,15.41-2.17,23.08c-1.2,10-2.35,20.02-4.17,29.92
			c-2.31,12.55,1.19,22.92,10.4,31.43c2.39,2.21,5.14,4.27,8.09,5.55c4.52,1.95,6.14,5.31,6.34,9.79
			c0.48,10.41,9.87,20.7,21.46,20.7c0.31,0,0.62-0.01,0.93-0.02c1.43-0.07,2.64-0.11,3.67-0.11c5.49,0,6.13,1.28,10.91,7.16
			c6.62,8.16,14.79,12.65,24.85,12.65c1.76,0,3.58-0.14,5.47-0.42c11.1-1.66,22.23-3.13,33.39-4.26c3.33-0.34,6.67-0.67,10-0.99
			c5.75-0.55,11.5-1.07,17.26-1.56c5.76-0.49,11.51-0.94,17.27-1.36c0.98-0.07,1.94-0.12,2.89-0.12c1.46,0,2.9,0.12,4.36,0.49
			c2.31,0.58,4.51,1.62,6.36,3.14c1.78,1.46,3.19,3.3,4.52,5.17c0.33,0.46,3.7,5.44,3.96,5.44c0,0,0.01,0,0.01,0c0,0,0,0,0.01-0.01
			c0,0,0,0,0.01,0.01c0,0,0.01,0,0.01,0c0.27,0,3.64-4.98,3.96-5.44c1.32-1.87,2.73-3.71,4.52-5.17c1.85-1.51,4.05-2.56,6.36-3.14
			c1.46-0.36,2.91-0.49,4.36-0.49c0.95,0,1.92,0.05,2.89,0.12c5.76,0.42,11.52,0.87,17.27,1.36c5.76,0.49,11.51,1.01,17.26,1.56
			c3.33,0.32,6.67,0.65,10,0.99c11.16,1.14,22.29,2.61,33.39,4.26c1.88,0.28,3.7,0.42,5.47,0.42c10.05,0,18.23-4.49,24.85-12.65
			c4.77-5.88,5.42-7.16,10.91-7.16c1.03,0,2.23,0.04,3.67,0.11c0.31,0.01,0.62,0.02,0.93,0.02c11.59,0,20.98-10.29,21.46-20.7
			c0.21-4.48,1.83-7.83,6.34-9.79c2.95-1.28,5.71-3.34,8.09-5.55c9.21-8.51,12.71-18.89,10.4-31.43c-1.82-9.9-2.97-19.92-4.17-29.92
			c-0.92-7.67-1.46-15.39-2.17-23.08c-0.9-9.72-1.92-19.44-2.64-29.17c-0.22-2.96,1.35-5.97,2.87-8.4c1.78-2.86,3.99-5.46,6.64-7.56
			c0.05-0.04,0.11-0.09,0.16-0.13c0.59-0.46,1.2-0.9,1.8-1.35c0.32-0.23,0.63-0.47,0.94-0.72c0.23-0.18,0.6-0.41,0.78-0.66
			c0.02-0.02,0.04-0.04,0.04-0.06c0-0.01,0.01-0.01,0.02-0.02c0,0,0-0.01,0-0.01c0,0,0-0.01,0-0.01c0-0.01-0.01-0.01-0.02-0.02
			c-0.01-0.02-0.02-0.03-0.04-0.06c-0.18-0.25-0.55-0.48-0.78-0.66c-0.31-0.25-0.62-0.48-0.94-0.72c-0.6-0.45-1.21-0.88-1.8-1.35
			c-0.05-0.04-0.11-0.09-0.16-0.13c-2.64-2.1-4.85-4.7-6.64-7.56c-1.52-2.43-3.09-5.44-2.87-8.4c0.73-9.74,1.74-19.45,2.64-29.17
			c0.71-7.7,1.25-15.41,2.17-23.08c1.2-10,2.35-20.02,4.17-29.92c2.31-12.55-1.19-22.92-10.4-31.43c-2.39-2.21-5.14-4.27-8.09-5.55
			c-4.52-1.95-6.14-5.31-6.34-9.79c-0.48-10.41-9.87-20.7-21.46-20.7c-0.31,0-0.62,0.01-0.93,0.02c-1.43,0.07-2.64,0.11-3.67,0.11
			c-5.49,0-6.13-1.28-10.91-7.16c-6.62-8.16-14.79-12.65-24.85-12.65c-1.76,0-3.58,0.14-5.47,0.42c-11.1,1.66-22.23,3.13-33.39,4.26
			c-3.33,0.34-6.67,0.67-10,0.99c-5.75,0.55-11.5,1.07-17.26,1.56c-5.76,0.49-11.51,0.94-17.27,1.36c-0.98,0.07-1.94,0.12-2.89,0.12
			c-1.46,0-2.9-0.12-4.36-0.49c-2.31-0.58-4.51-1.62-6.36-3.14c-1.78-1.46-3.19-3.3-4.52-5.17
			C287.12,90.51,283.74,85.53,283.48,85.53L283.48,85.53z"/>
	</g>
	<g id="XMLID_00000034083781342744201180000014669485194986643370_">
		
			<rect id="XMLID_00000036933067740694025950000013109103446768992658_" x="414.09" y="299.18" class="st1" width="18.13" height="91.62"/>
		
			<rect id="XMLID_00000155827396722665269980000009685960271723619505_" x="190.02" y="397.21" class="st1" width="18.58" height="18.48"/>
		<path id="XMLID_00000116936035912023322470000008388705736227173507_" class="st1" d="M390.03,373.8h-12.46l0-8.58
			c-0.94-14.23-8.71-22.47-23.11-24.5l-31.16-0.01v-5.3l49.14-36.21h-29.37l-38.8,28.59v31.04h44.5c0.05,0,0.11,0,0.16,0
			c6.19,0,9.58,2.51,10.66,7.89v7.09h-65.4v-45.06h-18.13v45.06h-24.93v-45.06h-18.88v45.06H165.8
			c-7.53-1.66-11.13-7.45-10.99-17.72v-27.34H136.6v36.21l0.01,0.15c1.74,17.17,11.96,25.86,30.32,25.86c1.36,0,2.76-0.05,4.21-0.14
			h237.25v-91.62h-18.36V373.8z"/>
		
			<rect id="XMLID_00000013873963470920384760000005864715541700188305_" x="212.32" y="253.61" class="st1" width="18.61" height="18.52"/>
		
			<rect id="XMLID_00000052097254209693942140000003269698570619664778_" x="190" y="253.61" class="st1" width="18.61" height="18.52"/>
		<path id="XMLID_00000036219586659142613520000015446276805505894281_" class="st1" d="M408.4,229.46
			c-4.69-1.12-7.39-4.32-8.26-9.65c-1.07-11.24,3.78-17.28,14.82-18.47h10.35v-17.84l-8.74,0.06c-0.45-0.02-0.9-0.03-1.36-0.03
			l-1.1-0.01c-2.2-0.01-4.41-0.02-5.04,0.01c-6.97,0.35-9.69,1.99-15.19,5.67c-8.01,5.4-12.6,12.76-13.64,21.96
			c-0.48,8.05,0.33,14.08,2.46,18.31h-11.74v-0.01h-13.98v0.01h-8.84v-22.14l-0.02-0.21c-0.88-6.02-2.77-10.74-5.61-14.04
			c-2.81-3.26-5.68-5.52-8.53-6.71c-2.8-1.17-5.63-1.82-8.48-1.92h-54.47v45.03h-8.59v-25.84h-17.38v25.84h-14.82v-45.03h-18.12
			v45.03h-24.31v-0.02h-12.17v-45.03h-17.82v50.73c0.04,10.33-3.45,15.37-10.69,15.41l-1.48,0.01v0h-8.8v18.01h12.29
			c14.92,0,23.48-7.45,25.44-22.15h13.2v0.02h244.56v-16.99H408.4z M329.58,229.46h-41.16v-27.3H322c4.77,0.66,7.19,2.96,7.59,7.22
			V229.46z"/>
		<path id="XMLID_00000158020819035102384600000002478436309202797720_" class="st1" d="M260.77,149.02
			c1.16,0.63,1.84,1.55,2.27,2.86c0.79,2.4,1.66,4.76,2.51,7.13c0.87,2.44,1.74,4.88,2.64,7.3c0.78,2.08,1.06,2.24,3.14,2.08
			c0.19-0.01,0.38-0.02,0.57-0.05c5.51-0.86,11.05-0.95,16.6-0.72c2.83,0.12,5.65,0.46,8.48,0.7c1.53,0.11,1.94-0.14,2.62-2.01
			c1.7-4.67,3.38-9.35,5-14.05c0.54-1.56,1.28-2.65,2.73-3.44c2.97-1.62,3.19-5.83,0.56-8.06c-1.67-1.41-3.95-1.54-5.66-0.32
			c-1.98,1.41-2.61,3.23-1.92,5.86c0.24,0.91,0.12,1.58-0.47,2.25c-1.13,1.3-2.22,2.64-3.34,3.94c-0.25,0.29-0.58,0.49-0.88,0.72
			c-0.2-0.39-0.51-0.76-0.58-1.19c-0.49-2.77-0.86-5.57-1.41-8.33c-0.25-1.27-0.09-2.08,0.97-2.76c1.08-0.69,1.71-1.8,1.86-3.2
			c0.26-2.42-0.9-4.49-3.12-5.56c-2.05-0.99-4.44-0.39-6.03,1.52c-1.58,1.88-1.73,3.62-0.38,6.01c0.53,0.94,0.83,1.83,0.48,2.91
			c-0.97,2.98-1.94,5.97-2.92,8.95c-0.08,0.24-0.28,0.44-0.42,0.65c-0.19-0.23-0.45-0.43-0.55-0.7c-0.98-2.76-1.9-5.54-2.92-8.29
			c-0.44-1.2-0.45-2.17,0.36-3.22c2.23-2.92,0.77-5.86-1.34-7.42c-2.29-1.69-5.3-1.02-7.04,1.52c-1.59,2.34-1.23,4.78,1.03,6.9
			c0.1,0.09,0.19,0.18,0.3,0.25c0.84,0.54,0.98,1.37,0.78,2.33c-0.6,2.96-1.19,5.92-1.84,8.86c-0.23,1.05-0.52,1.12-1.23,0.35
			c-1.25-1.36-2.43-2.8-3.69-4.16c-0.74-0.8-1.1-1.51-0.51-2.69c0.61-1.22,0.36-2.55-0.27-3.76c-1-1.9-3.18-2.98-5.18-2.57
			c-1.92,0.39-3.67,2.28-3.92,4.25C257.78,146.06,258.66,147.87,260.77,149.02z"/>
		<path id="XMLID_00000000217338615372191130000010212969996545877640_" class="st1" d="M282.12,280.6
			c-0.55,0.04-1.1,0.11-1.64,0.22c-4.15,0.89-7.7,2.56-10.85,4.77c-2.63,1.84-3.92,4.09-3.89,6.86c0.08,5.96,0.04,11.93,0.05,17.89
			c0,0.39-0.04,0.79,0.04,1.18c0.23,1.12,1.12,1.4,2.29,0.66c0.73-0.46,1.39-0.99,2-1.55c3.45-3.18,7.83-5.11,13.07-5.94
			c2.13-0.34,2.35-0.58,2.37-2.27c0.02-3.21,0.01-6.41,0.01-9.62c0,0-0.01,0-0.01,0c0-3.15,0.04-6.26,0.02-9.45
			C285.63,281.23,285.56,280.38,282.12,280.6z"/>
		<path id="XMLID_00000062168981995347828130000002669913650914575783_" class="st1" d="M287.14,306.83
			c-0.47,0.05-0.93,0.14-1.38,0.25c-6.28,1.53-11.93,3.52-15.57,7.89c-0.43,0.51-0.85,1.09-0.98,1.67c-0.03,0.13-0.02,0.27,0.02,0.4
			c0.17,0.66,1.24,0.99,1.91,0.57c3.65-2.35,8.31-2.85,12.84-3.5c2.56-0.36,5.19-0.43,7.78-0.66c2.5-0.22,2.68-0.37,2.69-2.29
			l0.13-10.81c0-3.38,0.01-6.76-0.01-10.13c0-0.62,0.04-1.67-0.19-2.23c-0.18-0.41-0.55-0.63-1.03-0.63c-0.64,0-1.29,0.01-1.93,0.02
			c-0.39,0-0.78,0.01-1.18,0.01c-0.18,0-0.36-0.01-0.54,0.01c-0.18,0.03-0.35,0.08-0.5,0.15c-0.26,0.13-0.42,0.32-0.53,0.54
			c-0.21,0.45-0.17,1.51-0.17,2.02c0,4.67,0.01,9.35,0.01,14.02c0,0.39-0.03,0.79,0,1.18C288.58,306.14,288.26,306.71,287.14,306.83
			z"/>
		<path id="XMLID_00000031927329118070122580000006379669721416383162_" class="st1" d="M256.84,285.59
			c-3.15-2.2-6.7-3.88-10.85-4.77c-0.54-0.12-1.09-0.19-1.64-0.22c-3.44-0.22-3.51,0.63-3.45,2.76c-0.01,3.19,0.02,6.3,0.02,9.45
			c0,0-0.01,0-0.01,0c0,3.21-0.02,6.41,0.01,9.62c0.01,1.69,0.24,1.94,2.37,2.27c5.24,0.83,9.62,2.75,13.07,5.94
			c0.6,0.56,1.27,1.09,2,1.55c1.17,0.73,2.05,0.46,2.29-0.66c0.08-0.38,0.04-0.79,0.04-1.18c0.01-5.96-0.02-11.93,0.05-17.89
			C260.76,289.68,259.47,287.43,256.84,285.59z"/>
		<path id="XMLID_00000084531102344689725260000018272093361458070661_" class="st1" d="M232.01,311.17
			c0.01,1.93,0.19,2.08,2.69,2.29c2.59,0.23,5.22,0.29,7.78,0.66c4.53,0.64,9.19,1.15,12.84,3.5c0.67,0.42,1.73,0.08,1.91-0.57
			c0.04-0.14,0.05-0.27,0.02-0.4c-0.13-0.59-0.56-1.16-0.98-1.67c-3.64-4.38-9.28-6.36-15.57-7.89c-0.45-0.11-0.91-0.2-1.38-0.25
			c-1.11-0.12-1.43-0.69-1.39-1.5c0.02-0.39,0-0.79,0-1.18c0-4.67,0.01-9.35,0.01-14.02c0-0.51,0.04-1.57-0.17-2.02
			c-0.1-0.22-0.26-0.41-0.53-0.54c-0.15-0.07-0.32-0.13-0.5-0.15c-0.18-0.03-0.36-0.01-0.54-0.01c-0.39,0-0.78-0.01-1.18-0.01
			c-0.64-0.01-1.29-0.02-1.93-0.02c-0.47,0-0.85,0.21-1.03,0.63c-0.24,0.56-0.19,1.61-0.19,2.23c-0.01,3.38-0.01,6.76-0.01,10.13
			L232.01,311.17z"/>
	</g>
</g>
</svg>
